<svg xmlns="http://www.w3.org/2000/svg" viewBox="0 0 512 512">
  <defs>
    <linearGradient id="bg" x1="0%" y1="0%" x2="100%" y2="100%">
      <stop offset="0%" stop-color="#1E40AF"/>
      <stop offset="100%" stop-color="#3B82F6"/>
    </linearGradient>
    <linearGradient id="shine" x1="0%" y1="0%" x2="0%" y2="100%">
      <stop offset="0%" stop-color="rgba(255,255,255,0.15)"/>
      <stop offset="100%" stop-color="rgba(255,255,255,0)"/>
    </linearGradient>
  </defs>
  <!-- Fond arrondi dégradé -->
  <rect width="512" height="512" rx="112" fill="url(#bg)"/>
  <rect width="512" height="512" rx="112" fill="url(#shine)"/>
  <!-- Carrosserie voiture -->
  <path d="M96 296 C96 296 130 240 160 228 L208 192 C220 186 240 182 256 182 C272 182 292 186 304 192 L352 228 C382 240 416 296 416 296 L416 330 C416 342 406 352 394 352 L118 352 C106 352 96 342 96 330 Z" fill="white" opacity="0.95"/>
  <!-- Toit voiture -->
  <path d="M196 228 L220 188 C226 178 240 172 256 172 C272 172 286 178 292 188 L316 228 Z" fill="white" opacity="0.85"/>
  <!-- Vitre gauche -->
  <path d="M206 228 L222 196 C226 188 238 184 248 184 L248 228 Z" fill="#1E40AF" opacity="0.5"/>
  <!-- Vitre droite -->
  <path d="M306 228 L290 196 C286 188 274 184 264 184 L264 228 Z" fill="#1E40AF" opacity="0.5"/>
  <!-- Vitre centre -->
  <path d="M250 228 L252 184 L260 184 L262 228 Z" fill="#1E40AF" opacity="0.3"/>
  <!-- Roue gauche -->
  <circle cx="158" cy="352" r="42" fill="#1E3A8A"/>
  <circle cx="158" cy="352" r="26" fill="#60A5FA"/>
  <circle cx="158" cy="352" r="12" fill="#1E40AF"/>
  <!-- Roue droite -->
  <circle cx="354" cy="352" r="42" fill="#1E3A8A"/>
  <circle cx="354" cy="352" r="26" fill="#60A5FA"/>
  <circle cx="354" cy="352" r="12" fill="#1E40AF"/>
  <!-- Phare avant -->
  <ellipse cx="108" cy="296" rx="14" ry="10" fill="#FCD34D" opacity="0.9"/>
  <!-- Phare arrière -->
  <ellipse cx="404" cy="296" rx="14" ry="10" fill="#EF4444" opacity="0.9"/>
  <!-- Pare-chocs -->
  <rect x="100" y="330" width="312" height="14" rx="7" fill="white" opacity="0.4"/>
</svg>
